<svg width="29" height="33" viewBox="0 0 29 33" fill="none" xmlns="http://www.w3.org/2000/svg">
<path d="M17.2492 0.105863C18.4084 0.27975 19.5511 0.60268 20.2467 0.942173C21.704 1.66256 22.4244 3.04537 22.4244 5.09061C22.4244 6.48998 22.0932 7.44222 21.3479 8.18744C20.9256 8.60974 20.6524 8.75879 20.2963 8.75879C20.0893 8.75879 20.0976 8.7505 20.4371 8.41929C20.9422 7.93075 21.2651 7.19381 21.2651 6.53966C21.2651 6.04284 21.2486 5.99316 20.9753 5.71991C20.7021 5.44666 20.6524 5.4301 20.3377 5.47978C19.8823 5.55431 19.4932 5.80271 19.2696 6.15877C19.0626 6.49826 19.104 6.63075 19.311 6.30781C19.3938 6.19189 19.6588 6.00144 19.9072 5.88552C20.2963 5.71163 20.3791 5.69507 20.5779 5.79444C20.8925 5.94348 20.9836 6.32438 20.8594 6.89572C20.7269 7.48362 20.3709 7.9556 19.8244 8.26197C19.3275 8.5435 19.3607 8.46069 19.1951 9.86835C19.1454 10.2741 19.1371 10.6301 19.1702 10.6715C19.2033 10.7047 19.3275 10.7461 19.4435 10.7626C19.6091 10.7792 19.6588 10.8454 19.6753 11.0359L19.7002 11.2843H20.4619C21.0913 11.2843 21.29 11.3174 21.6129 11.4747C22.1097 11.7231 22.739 12.2862 23.1365 12.841C23.3104 13.0811 23.625 13.462 23.8403 13.6939C24.5938 14.5053 25.0658 15.383 25.604 16.9315C25.8028 17.5111 26.0594 18.2232 26.1836 18.513L26.4072 19.0347L26.1754 19.4569C25.5212 20.6576 23.4594 22.0735 20.967 23.034C20.0645 23.3901 20.0645 23.3984 20.8842 25.3028L21.555 26.8761L21.8862 26.6111C22.8467 25.8493 24.0473 24.4251 24.6518 23.3238C24.8257 22.9926 25.0658 22.6945 25.2397 22.5786C26.283 21.8665 27.227 20.8149 27.6658 19.8544C27.9722 19.192 27.9473 19.0181 27.3926 17.3537C26.904 15.8881 26.2416 14.497 25.4881 13.3626C25.19 12.8989 24.834 12.3359 24.7015 12.1123C24.2295 11.2843 23.6416 10.4645 23.0785 9.87663C22.7639 9.54541 22.5072 9.24732 22.5072 9.2142C22.5072 9.18108 22.6397 8.99891 22.8053 8.81675C23.1696 8.38617 23.5505 7.6161 23.683 7.03648C23.741 6.80463 23.8155 6.60591 23.8486 6.60591C23.9645 6.60591 25.1652 7.78999 25.6951 8.42757C27.227 10.2741 28.262 12.427 28.7754 14.8779C28.9658 15.797 28.999 16.12 28.999 17.5773C29.0072 18.6206 28.9658 19.4652 28.8996 19.8544C27.9225 25.3111 24.5441 29.4099 19.4435 31.3061C17.1747 32.1507 14.1855 32.3991 11.8753 31.9271C11.3453 31.8277 11.4281 32.0347 11.1632 30.0475C11.0638 29.3519 10.9976 28.764 11.0141 28.7557C11.0307 28.7475 11.3784 28.822 11.8007 28.9296C12.8855 29.2029 14.3345 29.3188 15.4027 29.2194C16.2142 29.1366 17.6963 28.8634 17.8702 28.7557C17.9613 28.6978 17.7129 28.0271 17.3568 27.3895C17.2161 27.1411 17.0256 26.785 16.9263 26.6111C16.4543 25.7334 15.6511 25.1621 14.4753 24.8474C13.788 24.657 11.0886 24.6404 9.9708 24.8143L9.23385 24.9219L9.29181 25.9735C9.36633 27.3564 9.62302 29.0787 9.87971 29.9895C10.1447 30.8921 10.1281 31.0991 9.77207 31.3309C9.29181 31.6538 8.60455 31.7118 5.65676 31.6787C2.87457 31.6456 2.55164 31.6124 2.55164 31.3309C2.55164 31.1239 3.02362 30.8092 3.5784 30.6271C4.14974 30.4449 6.19497 29.5755 6.29434 29.4761C6.31918 29.443 6.21982 28.8054 6.07077 28.0519C5.43319 24.9385 5.05229 22.2971 5.15994 21.6678C5.2179 21.32 5.36694 21.1544 5.8058 20.9722C6.40198 20.7238 7.58607 20.8646 9.72239 21.4277C10.8071 21.7175 10.7988 21.7175 10.9065 21.5187C10.981 21.3945 10.9065 21.3117 10.4097 20.9722C10.095 20.757 9.61474 20.3429 9.34977 20.0531C8.77015 19.4155 7.8676 18.1652 7.80136 17.9002C7.74339 17.6601 8.07461 16.9232 8.55486 16.2525C8.98544 15.6397 10.153 14.5136 10.7823 14.0913C11.039 13.9257 11.246 13.7601 11.246 13.727C11.246 13.611 11.9332 12.8907 12.1568 12.7747C12.4549 12.6257 14.2352 12.1703 14.8313 12.104L15.3033 12.0461V11.5575C15.3033 11.1352 15.3282 11.0524 15.4689 11.0193C15.6097 10.9862 15.6345 10.9034 15.6345 10.5805V10.183L15.0383 10.2244C14.6989 10.2492 14.2269 10.2244 13.9619 10.1747C13.4485 10.0671 12.5708 9.66134 12.3969 9.45433C12.2479 9.27216 12.281 7.41738 12.4466 6.4403C12.6371 5.3473 13.018 4.24602 13.4982 3.40971L13.9039 2.6976L13.6059 2.37467C13.1918 1.91925 13.2084 1.62944 13.6721 1.19058C14.0116 0.86765 14.0199 0.859372 14.0447 1.0581C14.111 1.66256 14.3842 2.06002 14.8645 2.25874C15.0301 2.32499 15.1708 2.38295 15.1874 2.38295C15.204 2.38295 15.0549 2.21734 14.8562 2.02689C14.409 1.57148 14.26 1.17402 14.3925 0.768288C14.6243 0.0561816 15.5352 -0.150826 17.2492 0.105863ZM11.7014 3.51735C11.453 4.09697 11.1549 5.04093 10.9976 5.73647C10.9065 6.19189 10.8071 6.57278 10.7823 6.59762C10.7657 6.61419 10.4179 6.77151 10.0122 6.9454C6.42682 8.44413 3.7854 11.7563 3.08158 15.6314C2.81661 17.0888 2.92425 19.5729 3.30515 20.641C3.35483 20.7735 3.42935 21.4111 3.47075 22.0487C3.51215 22.7856 3.69432 24.0691 3.95929 25.5595C4.18286 26.8595 4.35675 27.9277 4.34019 27.9443C4.27394 28.0188 3.0733 26.6194 2.55164 25.8493C-0.396152 21.5187 -0.818448 16.0455 1.4338 11.3671C3.28031 7.52502 6.7332 4.67659 10.8485 3.59187C11.7842 3.34346 11.7759 3.34346 11.7014 3.51735Z" fill="#FEFEFE"/>
<path d="M21.0743 15.5896C20.4781 16.2271 19.7578 17.3947 19.4348 18.2558C19.2361 18.8189 19.1616 19.1584 19.1285 19.7463C19.0953 20.4749 19.1036 20.4998 19.2858 20.5992C19.3934 20.6571 19.6004 20.8144 19.7495 20.9469L20.0145 21.2036L20.5775 20.889C20.9584 20.6737 21.4055 20.3093 21.9686 19.7297C22.424 19.2743 22.9622 18.7609 23.161 18.6036L23.517 18.3055L23.1444 17.817C22.6062 17.1049 22.2005 16.4424 21.8692 15.7469C21.7119 15.4074 21.5629 15.1341 21.538 15.1341C21.5215 15.1341 21.3145 15.3412 21.0743 15.5896Z" fill="#FEFEFE"/>
<path d="M12.1144 15.8632C12.0398 16.1116 11.1704 16.9396 10.657 17.2543L10.1768 17.5524L10.4666 17.8008C10.6239 17.9333 10.8557 18.281 10.9882 18.5626C11.2532 19.1173 11.7003 19.7715 11.8163 19.7715C11.9901 19.7715 12.1806 18.3804 12.1889 17.0638C12.1972 16.3186 12.1889 15.7141 12.1806 15.7141C12.1723 15.7141 12.1475 15.7804 12.1144 15.8632Z" fill="#FEFEFE"/>
</svg>
